name Walk9.mot
datacolumns 19
datarows 12
range 2.17500000 2.18600000
endheader

                time	   L_ground_force_vx	   L_ground_force_vy	   L_ground_force_vz	   L_ground_force_px	   L_ground_force_py	   L_ground_force_pz	   R_ground_force_vx	   R_ground_force_vy	   R_ground_force_vz	   R_ground_force_px	   R_ground_force_py	   R_ground_force_pz	   L_ground_torque_x	   L_ground_torque_y	   L_ground_torque_z	   R_ground_torque_x	   R_ground_torque_y	   R_ground_torque_z	
          2.17500000	          0.00000000	          0.00000000	          0.00000000	          0.00000000	          0.00000000	          0.00000000	        -25.31857604	        873.88269392	        -60.19640032	          0.28981972	          0.00000000	          0.13215822	          0.00000000	          0.00000000	          0.00000000	          0.00000000	         10.03429384	          0.00000000	
          2.17600000	          0.00000000	          0.00000000	          0.00000000	          0.00000000	          0.00000000	          0.00000000	        -25.06811342	        873.94080410	        -60.06540880	          0.28994913	          0.00000000	          0.13212621	          0.00000000	          0.00000000	          0.00000000	          0.00000000	          9.99451913	          0.00000000	
          2.17700000	          0.00000000	          0.00000000	          0.00000000	          0.00000000	          0.00000000	          0.00000000	        -24.80511118	        873.97008989	        -59.91937670	          0.29002519	          0.00000000	          0.13209195	          0.00000000	          0.00000000	          0.00000000	          0.00000000	          9.95436291	          0.00000000	
          2.17800000	          0.00000000	          0.00000000	          0.00000000	          0.00000000	          0.00000000	          0.00000000	        -24.52614008	        873.97107922	        -59.76874173	          0.29010250	          0.00000000	          0.13207601	          0.00000000	          0.00000000	          0.00000000	          0.00000000	          9.91426718	          0.00000000	
          2.17900000	          0.00000000	          0.00000000	          0.00000000	          0.00000000	          0.00000000	          0.00000000	        -24.23365410	        873.95342665	        -59.62878487	          0.29022546	          0.00000000	          0.13207943	          0.00000000	          0.00000000	          0.00000000	          0.00000000	          9.87052718	          0.00000000	
          2.18000000	          0.00000000	          0.00000000	          0.00000000	          0.00000000	          0.00000000	          0.00000000	        -23.93332797	        873.98281878	        -59.50143007	          0.29041826	          0.00000000	          0.13209428	          0.00000000	          0.00000000	          0.00000000	          0.00000000	          9.81616755	          0.00000000	
          2.18100000	          0.00000000	          0.00000000	          0.00000000	          0.00000000	          0.00000000	          0.00000000	        -23.62938091	        874.14866272	        -59.38193327	          0.29068291	          0.00000000	          0.13211913	          0.00000000	          0.00000000	          0.00000000	          0.00000000	          9.74918634	          0.00000000	
          2.18200000	          0.00000000	          0.00000000	          0.00000000	          0.00000000	          0.00000000	          0.00000000	        -23.32598188	        874.48217246	        -59.27627700	          0.29100426	          0.00000000	          0.13215676	          0.00000000	          0.00000000	          0.00000000	          0.00000000	          9.67546472	          0.00000000	
          2.18300000	          0.00000000	          0.00000000	          0.00000000	          0.00000000	          0.00000000	          0.00000000	        -23.02975481	        874.93482770	        -59.20297876	          0.29134975	          0.00000000	          0.13220542	          0.00000000	          0.00000000	          0.00000000	          0.00000000	          9.60365410	          0.00000000	
          2.18400000	          0.00000000	          0.00000000	          0.00000000	          0.00000000	          0.00000000	          0.00000000	        -22.74420096	        875.42841229	        -59.17444208	          0.29167137	          0.00000000	          0.13226043	          0.00000000	          0.00000000	          0.00000000	          0.00000000	          9.53994856	          0.00000000	
          2.18500000	          0.00000000	          0.00000000	          0.00000000	          0.00000000	          0.00000000	          0.00000000	        -22.46495993	        875.88927277	        -59.17816784	          0.29192751	          0.00000000	          0.13231668	          0.00000000	          0.00000000	          0.00000000	          0.00000000	          9.48476785	          0.00000000	
          2.18600000	          0.00000000	          0.00000000	          0.00000000	          0.00000000	          0.00000000	          0.00000000	        -22.18210857	        876.24271049	        -59.18243218	          0.29210380	          0.00000000	          0.13236586	          0.00000000	          0.00000000	          0.00000000	          0.00000000	          9.43378290	          0.00000000	
